<svg
   width="210mm"
   height="297mm"
   viewBox="0 0 210 297"
   version="1.1"
   id="svg5"
   inkscape:version="1.2.1 (9c6d41e410, 2022-07-14)"
   sodipodi:docname="Omar.svg"
   xmlns:inkscape="http://www.inkscape.org/namespaces/inkscape"
   xmlns:sodipodi="http://sodipodi.sourceforge.net/DTD/sodipodi-0.dtd"
   xmlns="http://www.w3.org/2000/svg"
   xmlns:svg="http://www.w3.org/2000/svg">
  <sodipodi:namedview
     id="namedview7"
     pagecolor="#ffffff"
     bordercolor="#000000"
     borderopacity="0.25"
     inkscape:showpageshadow="2"
     inkscape:pageopacity="0.0"
     inkscape:pagecheckerboard="0"
     inkscape:deskcolor="#d1d1d1"
     inkscape:document-units="mm"
     showgrid="false"
     inkscape:zoom="0.71624579"
     inkscape:cx="168.93642"
     inkscape:cy="561.95793"
     inkscape:window-width="1920"
     inkscape:window-height="991"
     inkscape:window-x="-9"
     inkscape:window-y="-9"
     inkscape:window-maximized="1"
     inkscape:current-layer="layer1" />
  <defs
     id="defs2">
    <inkscape:path-effect
       effect="powerstroke"
       id="path-effect1764"
       is_visible="true"
       lpeversion="1"
       offset_points="0.50331213,5.5410446"
       not_jump="true"
       sort_points="true"
       interpolator_type="CentripetalCatmullRom"
       interpolator_beta="0.75"
       start_linecap_type="round"
       linejoin_type="spiro"
       miter_limit="4"
       scale_width="1"
       end_linecap_type="round" />
    <inkscape:path-effect
       effect="powerstroke"
       id="path-effect1759"
       is_visible="true"
       lpeversion="1"
       offset_points="0.32415769,5.5410446"
       not_jump="true"
       sort_points="true"
       interpolator_type="CentripetalCatmullRom"
       interpolator_beta="0.75"
       start_linecap_type="round"
       linejoin_type="spiro"
       miter_limit="4"
       scale_width="1"
       end_linecap_type="round" />
    <inkscape:path-effect
       effect="powerstroke"
       id="path-effect1746"
       is_visible="true"
       lpeversion="1"
       offset_points="0.42002036,5.5410446"
       not_jump="true"
       sort_points="true"
       interpolator_type="CentripetalCatmullRom"
       interpolator_beta="0.75"
       start_linecap_type="round"
       linejoin_type="spiro"
       miter_limit="4"
       scale_width="1"
       end_linecap_type="round" />
    <inkscape:path-effect
       effect="powerstroke"
       id="path-effect1741"
       is_visible="true"
       lpeversion="1"
       offset_points="0.41562704,5.5410446"
       not_jump="true"
       sort_points="true"
       interpolator_type="CentripetalCatmullRom"
       interpolator_beta="0.75"
       start_linecap_type="round"
       linejoin_type="spiro"
       miter_limit="4"
       scale_width="1"
       end_linecap_type="round" />
    <rect
       x="569.63686"
       y="349.04219"
       width="124.25902"
       height="136.82454"
       id="rect1403" />
    <rect
       x="597.56023"
       y="351.83453"
       width="101.92032"
       height="146.59772"
       id="rect1397" />
    <linearGradient
       id="linearGradient1159"
       inkscape:swatch="gradient">
      <stop
         style="stop-color:#000000;stop-opacity:1;"
         offset="0"
         id="stop1155" />
      <stop
         style="stop-color:#000000;stop-opacity:0;"
         offset="1"
         id="stop1157" />
    </linearGradient>
  </defs>
  <g
     inkscape:label="Layer 1"
     inkscape:groupmode="layer"
     id="layer1">
    <path
       id="path111"
       style="fill:#000000;stroke-width:0.264583"
       d="M 28.10061,15.567008 A 18.100746,18.100746 0 0 0 9.9999064,33.667712 18.100746,18.100746 0 0 0 28.10061,51.768416 18.100746,18.100746 0 0 0 46.201314,33.667712 18.100746,18.100746 0 0 0 28.10061,15.567008 Z m 0.390674,15.051795 c 0.852212,0.0027 1.55656,0.443873 2.216402,1.180806 0.355098,0.342197 0.589541,0.769987 0.812354,1.203028 0.846672,1.645526 0.190937,2.949398 -0.767912,3.374471 -0.394632,1.15656 -2.063039,1.819664 -3.682462,0.344682 -0.682066,-0.62123 -1.330302,-1.3656 -1.543059,-2.291333 -0.05498,-0.239194 -0.05346,-0.48776 -0.0801,-0.731739 0.04376,-1.422651 0.740334,-2.259364 1.970422,-2.873209 0.384922,-0.141845 0.74088,-0.207774 1.074353,-0.206706 z m 0.545703,2.706295 c -2.53e-4,0.007 0.01986,0.06417 0.05736,0.141076 -0.03845,-0.107181 -0.05712,-0.147629 -0.05736,-0.141076 z" />
    <rect
       style="fill:#000000;stroke-width:0.264583"
       id="rect275"
       width="12.190299"
       height="35.462685"
       x="58.735073"
       y="15.514925"
       ry="6.0951495" />
    <path
       id="rect279"
       style="fill:#000000;stroke-width:0.264583"
       d="m 106.57255,16.623291 c -3.58136,0 -6.46421,2.882845 -6.46421,6.464204 v 21.05608 c 0,3.581359 2.88285,6.464721 6.46421,6.464721 3.58136,0 6.46472,-2.883362 6.46472,-6.464721 v -21.05608 c 0,-3.581359 -2.88336,-6.464204 -6.46472,-6.464204 z" />
    <rect
       style="fill:#000000;stroke-width:0.243328"
       id="rect328"
       width="11.47449"
       height="36.371307"
       x="-33.589699"
       y="-96.78656"
       ry="5.149919"
       transform="matrix(-0.62030455,0.78436106,-0.74833744,-0.66331823,0,0)" />
    <rect
       style="fill:#000000;stroke-width:0.132339"
       id="rect387"
       width="8.8866854"
       height="13.891394"
       x="38.14975"
       y="-141.10553"
       ry="1.9669228"
       transform="matrix(0.02882911,0.99958435,-0.99998833,0.00483125,0,0)" />
    <rect
       style="fill:#000000;stroke-width:0.243328"
       id="rect389"
       width="11.47449"
       height="36.371307"
       x="-139.64607"
       y="-21.506821"
       ry="5.149919"
       transform="matrix(-0.97511981,-0.2216785,0.27601808,-0.96115244,0,0)" />
    <rect
       style="fill:#000000;stroke-width:0.243328"
       id="rect391"
       width="11.47449"
       height="36.371307"
       x="-117.51603"
       y="-116.98946"
       ry="5.149919"
       transform="matrix(-0.86931002,0.49426722,-0.444735,-0.8956622,0,0)" />
    <rect
       style="fill:#000000;stroke-width:0.243328"
       id="rect395"
       width="11.47449"
       height="36.371307"
       x="-180.15541"
       y="-55.28603"
       ry="5.149919"
       transform="matrix(-0.99965573,0.02623788,0.02986798,-0.99955385,0,0)" />
    <rect
       style="fill:#000000;stroke-width:0.243328"
       id="rect397"
       width="11.47449"
       height="36.371307"
       x="-96.081886"
       y="22.565277"
       ry="5.149919"
       transform="matrix(-0.75064143,-0.66070981,0.70176877,-0.7124048,0,0)" />
    <text
       xml:space="preserve"
       style="font-size:3.175px;fill:none;fill-opacity:1;stroke:#000000;stroke-width:10;stroke-dasharray:none;stroke-opacity:1"
       x="153.67165"
       y="63.167908"
       id="text1389"><tspan
         sodipodi:role="line"
         id="tspan1387"
         style="stroke-width:10;stroke-dasharray:none"
         x="153.67165"
         y="63.167908" /></text>
    <text
       xml:space="preserve"
       transform="scale(0.26458333)"
       id="text1395"
       style="fill:none;fill-opacity:1;stroke:#000000;stroke-opacity:1;stroke-width:37.79527559;stroke-dasharray:none;white-space:pre;shape-inside:url(#rect1397)" />
    <path
       d="m 178.75913,22.523294 c 0.35907,-0.02191 3.49613,-0.252492 4.67634,-0.283812 0.61765,-0.01639 1.21488,-0.01289 1.75246,0.02635 0.47296,0.03452 0.83775,0.09245 1.10373,0.161466 0.006,0.0016 0.0124,0.0032 0.0185,0.0049 0.19585,0.05212 0.30487,0.110553 0.28658,0.09945 -0.0258,-0.01566 -0.10614,-0.07351 -0.17787,-0.169919 -0.0646,-0.08684 -0.0391,-0.09411 0.008,0.07617 0.047,0.170246 0.12174,0.54323 0.12174,1.203943 0,0.672809 -0.03,1.08022 -0.0657,1.321921 -0.0288,0.195063 -0.0362,0.162366 -0.008,0.09793 0.0384,-0.08654 0.0597,-0.08892 -0.0488,0.04599 -0.13434,0.167084 -0.36188,0.417033 -0.84074,0.895895 0.31609,-0.316381 0.61028,-0.532806 0.79372,-0.658044 0.19511,-0.133208 0.36543,-0.231098 0.48572,-0.296231 0.23432,-0.12687 0.42933,-0.210319 0.53423,-0.25337 0.21305,-0.08743 0.38401,-0.141678 0.45099,-0.162585 0.15133,-0.04723 0.26914,-0.07661 0.30263,-0.08497 0.0875,-0.02184 0.15154,-0.03538 0.15935,-0.03705 0.031,-0.0066 0.0407,-0.0083 0.0109,-0.0025 -0.0499,0.0097 -0.14141,0.027 -0.27999,0.05261 -0.26962,0.04983 -0.66293,0.121156 -1.14926,0.20858 -0.95823,0.172252 -2.23869,0.400015 -3.54039,0.630731 -0.36439,0.06459 -3.17955,0.562033 -3.54394,0.626618 -0.29079,0.05132 -0.87766,0.154842 -1.16845,0.206163 0.0303,-0.0053 -0.35939,0.06344 -0.32909,0.0581 0.004,-6.61e-4 -0.0941,0.01666 -0.0904,0.016 0.004,-7.87e-4 -0.035,0.0062 -0.0306,0.0054 -0.004,6.84e-4 -0.0124,0.0022 -0.0225,0.0041 -0.003,6.09e-4 -0.0171,0.0031 -0.0348,0.0065 -0.006,0.0011 -0.0315,0.0059 -0.0653,0.01272 -0.0112,0.0023 -0.0598,0.01198 -0.1229,0.02616 -0.0227,0.0051 -0.10908,0.02444 -0.22025,0.05425 -0.0454,0.01216 -0.18325,0.04932 -0.35778,0.109006 -0.0813,0.02781 -0.26536,0.09237 -0.49202,0.194963 -0.11591,0.05251 -0.30754,0.143755 -0.53418,0.277691 -0.18329,0.108317 -0.63525,0.385905 -1.10955,0.862762 l 0.0105,-0.01055 c -0.28303,0.283031 -0.59423,0.646683 -0.87857,1.100729 -0.28777,0.45952 -0.5535,1.02095 -0.72316,1.679767 -0.17225,0.668887 -0.22829,1.373276 -0.15336,2.082206 0.0744,0.703905 0.26888,1.329501 0.51472,1.860522 0.47421,1.024313 1.13848,1.70069 1.58527,2.086708 0.46787,0.404235 0.92703,0.686821 1.26897,0.874597 0.67775,0.372181 1.36449,0.625148 1.87279,0.792877 0.55063,0.181696 1.11204,0.333964 1.6169,0.459402 1.00833,0.250526 2.09948,0.467609 2.78128,0.60767 0.39566,0.08128 0.65368,0.136141 0.82673,0.177338 0.087,0.02071 0.0948,0.02447 0.0531,0.01207 -0.023,-0.0069 -0.0878,-0.02651 -0.17992,-0.05989 -0.0809,-0.02934 -0.26382,-0.09818 -0.49546,-0.214003 -0.21212,-0.106057 -0.25614,-0.180302 -0.1513,-0.07425 0.10585,0.107085 0.27991,0.313091 0.51095,0.657635 0.51117,0.762311 1.03684,1.799701 1.57831,2.977065 0.60781,1.321622 1.17053,2.663872 1.72862,3.842777 0.32901,0.695015 0.66622,1.357438 1.02829,1.9688 0.42903,0.724405 0.95273,1.479944 1.6225,2.149714 a 5.5410446,5.5410446 90 0 0 7.83622,-7.836214 c 0.21372,0.213721 0.23183,0.301439 0.0766,0.0393 -0.12215,-0.206247 -0.29644,-0.533679 -0.54717,-1.063324 -0.4087,-0.863333 -0.95507,-2.162427 -1.67668,-3.73148 -0.58522,-1.272504 -1.41249,-2.982775 -2.44237,-4.518642 -0.49153,-0.733018 -1.0978,-1.531772 -1.83375,-2.276309 -0.70501,-0.713222 -1.62138,-1.470813 -2.77415,-2.0472 -0.28199,-0.140996 -0.52775,-0.235961 -0.68347,-0.292415 -0.16629,-0.06029 -0.317,-0.10781 -0.43706,-0.143528 -0.23365,-0.06951 -0.46079,-0.126634 -0.64678,-0.170913 -0.36431,-0.08673 -0.78119,-0.173453 -1.16323,-0.251935 -0.79337,-0.16298 -1.60811,-0.325743 -2.33909,-0.507363 -0.35207,-0.08747 -0.62351,-0.164584 -0.81641,-0.228236 -0.22602,-0.07458 -0.18867,-0.08022 -0.0112,0.01724 0.0937,0.05145 0.34117,0.193659 0.6419,0.453485 0.28036,0.242224 0.82232,0.77078 1.22623,1.643229 0.21079,0.455322 0.38314,1.004202 0.44933,1.630386 0.0667,0.631338 0.0164,1.257132 -0.1354,1.846422 -0.1492,0.579341 -0.37967,1.060294 -0.61641,1.438338 -0.23245,0.371183 -0.47594,0.651708 -0.67517,0.851229 -0.47133,0.471874 -0.91919,0.746918 -1.10143,0.854617 -0.22664,0.133935 -0.41827,0.225178 -0.53241,0.276887 -0.22843,0.103398 -0.41251,0.167959 -0.49307,0.19552 -0.17525,0.05993 -0.31313,0.09708 -0.35824,0.109183 -0.1114,0.02987 -0.19772,0.0492 -0.22044,0.0543 -0.0631,0.01417 -0.11157,0.02388 -0.1227,0.02612 -0.0336,0.0068 -0.0592,0.01158 -0.0646,0.01258 -0.0171,0.0032 -0.0299,0.0055 -0.0319,0.0059 -0.01,0.0018 -0.0109,0.002 -0.0113,0.002 -0.004,7.69e-4 0.009,-0.0017 0.0137,-0.0024 -3.3e-4,6.1e-5 0.0826,-0.01462 0.0823,-0.01456 0.0105,-0.0019 0.31537,-0.05567 0.32585,-0.05752 0.83761,-0.147796 0.33127,-0.05845 1.16889,-0.206242 -0.63695,0.112415 4.18885,-0.740441 3.5519,-0.628026 1.30143,-0.230669 2.595,-0.460754 3.56702,-0.635485 0.49072,-0.08821 0.90518,-0.163337 1.20254,-0.218291 0.1474,-0.02724 0.28024,-0.05214 0.38434,-0.07241 0.0476,-0.0093 0.1169,-0.02292 0.18875,-0.03829 0.0283,-0.006 0.10805,-0.02314 0.20643,-0.0477 0.0389,-0.0097 0.16097,-0.04025 0.31529,-0.08841 0.0685,-0.02137 0.24062,-0.07604 0.45454,-0.163825 0.10535,-0.04323 0.30072,-0.126845 0.5352,-0.253804 0.12055,-0.06527 0.29099,-0.163236 0.4862,-0.296513 0.18355,-0.125308 0.47782,-0.341799 0.7958,-0.660076 0.53351,-0.533506 1.11252,-1.130917 1.63944,-1.786285 0.58154,-0.723297 1.11612,-1.535398 1.54297,-2.498113 0.45206,-1.019574 0.69979,-2.021096 0.84011,-2.972039 0.14847,-1.006129 0.1844,-2.020491 0.1844,-2.939694 0,-1.493585 -0.16793,-2.873661 -0.52178,-4.154656 -0.39279,-1.421977 -1.00259,-2.670508 -1.79898,-3.740835 -0.90184,-1.212069 -1.95295,-2.075184 -2.96266,-2.688087 -1.16132,-0.704937 -2.30208,-1.099924 -3.18719,-1.335459 -0.0284,-0.0076 -0.0567,-0.01499 -0.0849,-0.02232 -1.11093,-0.288258 -2.17985,-0.421566 -3.08042,-0.487294 -1.0418,-0.07603 -2.03915,-0.07345 -2.85314,-0.05184 -2.53216,0.0672 -4.1255,0.243626 -5.05732,0.300487 a 5.5410446,5.5410446 90 0 0 0.67498,11.061514 z"
       id="path-1-3"
       inkscape:path-effect="#path-effect1764"
       inkscape:original-d="m 178.42164,16.992537 c 6.474,-0.39505 13.66791,-1.631166 13.66791,6.649254 0,3.386241 -0.60189,4.295922 -2.58582,6.279851 -0.0321,0.03213 -10.34202,1.845748 -10.34328,1.847015 -1.33294,1.332942 5.84066,2.181526 6.64925,2.585821 3.70099,1.850493 5.69751,10.499748 7.75746,12.559701"
       style="fill:#000000;fill-opacity:1;fill-rule:nonzero;stroke:none;stroke-width:37.7953;stroke-dasharray:37.7953, 37.7953;stroke-dashoffset:0;stroke-opacity:1" />
  </g>
</svg>
